<?xml version="1.0" encoding="UTF-8" standalone="no"?>
<!-- Created with Inkscape (http://www.inkscape.org/) -->

<svg
   xmlns:dc="http://purl.org/dc/elements/1.1/"
   xmlns:cc="http://creativecommons.org/ns#"
   xmlns:rdf="http://www.w3.org/1999/02/22-rdf-syntax-ns#"
   xmlns:svg="http://www.w3.org/2000/svg"
   xmlns="http://www.w3.org/2000/svg"
   xmlns:sodipodi="http://sodipodi.sourceforge.net/DTD/sodipodi-0.dtd"
   xmlns:inkscape="http://www.inkscape.org/namespaces/inkscape"
   width="1500mm"
   height="1500mm"
   viewBox="0 0 1500 1500"
   version="1.1"
   id="svg914"
   inkscape:version="0.92.4 (5da689c313, 2019-01-14)"
   sodipodi:docname="landolt-flagge-fuer-papas-fahne-selected-fixed.svg">
  <defs
     id="defs908" />
  <sodipodi:namedview
     id="base"
     pagecolor="#ffffff"
     bordercolor="#666666"
     borderopacity="1.0"
     inkscape:pageopacity="0.0"
     inkscape:pageshadow="2"
     inkscape:zoom="0.49497476"
     inkscape:cx="2813.7174"
     inkscape:cy="4742.1343"
     inkscape:document-units="mm"
     inkscape:current-layer="layer1"
     showgrid="false"
     inkscape:window-width="1920"
     inkscape:window-height="1043"
     inkscape:window-x="1920"
     inkscape:window-y="0"
     inkscape:window-maximized="1" />
  <metadata
     id="metadata911">
    <rdf:RDF>
      <cc:Work
         rdf:about="">
        <dc:format>image/svg+xml</dc:format>
        <dc:type
           rdf:resource="http://purl.org/dc/dcmitype/StillImage" />
        <dc:title />
      </cc:Work>
    </rdf:RDF>
  </metadata>
  <g
     inkscape:label="Layer 1"
     inkscape:groupmode="layer"
     id="layer1"
     transform="translate(0,1203)">
    <rect
       style="fill:#e11423;fill-opacity:1;stroke:none;stroke-width:1.85989726"
       id="rect109-2-2-2"
       width="1500"
       height="1500"
       x="-3.1456642e-05"
       y="-1203" />
    <path
       style="fill:#16933b;fill-opacity:1;stroke:#000000;stroke-width:7.02953339;stroke-linecap:butt;stroke-linejoin:round;stroke-miterlimit:4;stroke-dasharray:none;stroke-opacity:1"
       d="m 750.00008,-170.56868 c -16.05103,0 -39.00324,2.95931 -49.28941,7.20651 -18.23953,5.02773 -65.02578,25.72198 -98.46155,92.180159 -14.08276,28.839314 -17.36475,99.955985 -13.87277,135.205523 0.90342,0 -26.63728,-49.537063 -59.8661,-65.4553684 C 473.78559,-27.647809 412.34479,-31.634183 364.46946,3.246255 237.94561,95.427322 274.30424,236.76016 331.0255,288.6819 c 53.23028,0 236.72344,0.64262 418.97458,1.32489 182.25107,-0.68325 365.74432,-1.32489 418.97462,-1.32489 56.7212,-51.92174 93.0798,-193.254578 -33.4439,-285.435645 -47.8755,-34.880438 -109.3162,-30.894064 -164.04089,-4.6781114 -33.22881,15.9183054 -60.76845,65.4553684 -59.86602,65.4553684 3.49197,-35.249538 0.20942,-106.366209 -13.8727,-135.205523 -33.4357,-66.458179 -80.22209,-87.152429 -98.4617,-92.180159 -10.28609,-4.2472 -33.23837,-7.20651 -49.28941,-7.20651 z"
       id="path47-6-8-7"
       inkscape:connector-curvature="0"
       sodipodi:nodetypes="scccssccccscccs" />
    <path
       style="fill:none;stroke:#000000;stroke-width:7.02953339;stroke-linecap:butt;stroke-linejoin:miter;stroke-miterlimit:4;stroke-dasharray:none;stroke-opacity:1"
       d="M 588.37635,64.023442 713.33063,290.85018"
       id="path5011-7-3"
       inkscape:connector-curvature="0" />
    <path
       style="fill:none;stroke:#000000;stroke-width:7.02953339;stroke-linecap:butt;stroke-linejoin:miter;stroke-miterlimit:4;stroke-dasharray:none;stroke-opacity:1"
       d="M 911.62389,64.023442 787.05701,290.85018"
       id="path5013-9-6"
       inkscape:connector-curvature="0" />
    <path
       style="fill:#16933b;fill-opacity:1;stroke:#000000;stroke-width:7.37888336;stroke-linecap:round;stroke-linejoin:round;stroke-miterlimit:4;stroke-dasharray:none;stroke-opacity:1"
       d="m 742.99054,-1064.3289 c 0,0 1.21283,24.3952 -37.97678,31.4943 -73.47732,13.3102 -107.89859,24.2528 -133.77715,75.13371 -51.84193,101.92854 15.92571,207.27596 43.59805,255.68848 7.11616,12.4496 42.09787,61.66718 42.09787,61.66718 0,0 -42.69632,-46.25063 -54.16634,-57.40105 -86.59511,-88.35174 -264.23713,-31.81888 -301.80436,43.23819 -23.03664,46.02547 -13.60905,71.61352 -38.51465,99.97974 20.42362,7.91171 29.63495,51.69315 45.56276,93.18304 8.88084,23.13379 15.90885,42.06096 37.27799,60.07634 27.12051,22.86413 52.72793,33.49395 94.5716,34.28141 101.7367,1.627 207.9018,-60.04039 268.02837,-87.80513 -40.94984,83.40908 -112.3858,211.12032 -45.89919,257.83973 24.81978,17.44059 55.55285,7.85109 97.12391,0.30904 34.89766,-6.33132 135.0244,-31.60998 171.20731,-2.86765 0,0 21.98169,-40.55597 60.96526,-61.11553 -33.41328,-3.34018 -108.84835,-12.94322 -172.3741,-1.35544 -57.62193,10.50984 -86.32229,23.28944 -101.7924,17.0378 -24.28586,-16.29217 -7.55976,-83.97882 4.71045,-106.78647 31.65107,-64.78696 40.57992,-75.11054 52.59304,-103.77571 87.03271,33.86816 164.45408,88.79687 273.04782,88.51936 67.8967,-3.07172 110.4575,-38.69694 131.8491,-94.35775 15.9277,-41.49003 22.8658,-83.57664 43.2888,-91.48835 -24.8656,-16.44143 -20.6133,-39.67887 -22.3633,-53.25336 -1.7499,-13.57448 -2.0727,-25.55876 -16.088,-52.21592 -61.0704,-116.15664 -214.04065,-122.61416 -299.5937,-39.44334 -11.46925,11.15042 -54.16543,57.40119 -54.16543,57.40119 0,0 28.00165,-33.64924 42.09759,-61.66732 14.09616,-28.018 95.43942,-153.75994 43.59812,-255.68848 -25.87855,-50.88091 -59.92061,-64.11991 -133.77764,-75.13391 -21.97441,-3.277 -35.77824,-17.8996 -39.325,-31.4943 z"
       id="path3833-2-6-6-4-4-8"
       inkscape:connector-curvature="0"
       sodipodi:nodetypes="cccsccscccccscccccccccczscczcscc" />
    <path
       d="m 765.91514,-590.31854 274.85236,27.03082 -286.30461,12.80412 -299.18831,-27.03096 270.55789,-17.07206 20.0413,-303.0298 z"
       style="fill:#76ee37;fill-opacity:1;stroke:#000000;stroke-width:0;stroke-linecap:butt;stroke-linejoin:miter;stroke-miterlimit:4;stroke-dasharray:none;stroke-opacity:1"
       id="path70-2-2-1"
       inkscape:connector-curvature="0" />
  </g>
</svg>
