<svg xmlns="http://www.w3.org/2000/svg" width="27.8" height="16.9" viewBox="0 0 27.8 16.9">
  <title>arrow</title>
  <g id="Layer_2" data-name="Layer 2">
    <g id="Layer_1-2" data-name="Layer 1">
      <path d="M12.8,16.4.4,4A1.3,1.3,0,0,1,0,3,1.4,1.4,0,0,1,.4,1.9L1.8.5A1.6,1.6,0,0,1,2.9,0,1.4,1.4,0,0,1,4,.4l9.9,9.9L23.7.4A1.5,1.5,0,0,1,24.8,0a1.4,1.4,0,0,1,1.1.5l1.4,1.4A1.4,1.4,0,0,1,27.8,3a1.4,1.4,0,0,1-.5,1L15,16.4a1.5,1.5,0,0,1-2.2,0Z" style="fill: #CC0033"/>
    </g>
  </g>
</svg>
