<svg xmlns="http://www.w3.org/2000/svg" width="39.8" height="39.8" viewBox="0 0 39.8 39.8">
  <title>Group</title>
  <g id="Layer_2" data-name="Layer 2">
    <g id="Layer_1-2" data-name="Layer 1">
      <g>
        <path d="M7.4,2.9h.9l.8.2.8.4.7.6a1.8,1.8,0,0,1,.5.7,2,2,0,0,1,.4.8l.3.8c0,.3.1.6.1.9s-.1.6-.1.9l-.3.8a3,3,0,0,1-.4.8l-.5.7-.7.5-.8.4-.8.3H6.5l-.8-.3a2,2,0,0,1-.8-.4,1.8,1.8,0,0,1-.7-.5l-.6-.7c-.1-.3-.3-.5-.4-.8A3.1,3.1,0,0,1,3,8.3a2.8,2.8,0,0,1-.1-.9A2.8,2.8,0,0,1,3,6.5a1.9,1.9,0,0,1,.2-.8,5.9,5.9,0,0,1,.4-.8l.6-.7.7-.6.8-.4L6.5,3Z" style="fill: #fff"/>
        <path d="M10.3,28.2V19.9a6.6,6.6,0,0,1,2-4.9,4.4,4.4,0,0,0-2.7-.9H4.5A4.5,4.5,0,0,0,0,18.6v5.1a.5.5,0,0,0,.4.6l2.2,1.1L3.2,34a.6.6,0,0,0,.6.6h6.5a.6.6,0,0,0,.6-.6l.3-4.1A2,2,0,0,1,10.3,28.2Z" style="fill: #fff"/>
        <path d="M32.4,2.9h.9l.8.2.8.4.7.6a1.8,1.8,0,0,1,.5.7,2,2,0,0,1,.4.8l.3.8c0,.3.1.6.1.9s-.1.6-.1.9l-.3.8-.4.8-.5.7-.7.5-.8.4-.8.3H31.5l-.8-.3-.8-.4a1.8,1.8,0,0,1-.7-.5l-.6-.7-.4-.8a3.1,3.1,0,0,1-.2-.8,2.8,2.8,0,0,1-.1-.9,2.8,2.8,0,0,1,.1-.9,1.9,1.9,0,0,1,.2-.8l.4-.8.6-.7.7-.6.8-.4.8-.2Z" style="fill: #fff"/>
        <path d="M29.5,28.2V19.9a7,7,0,0,0-2-4.9,4.1,4.1,0,0,1,2.6-.9h5.2a4.5,4.5,0,0,1,4.5,4.5v5.1a.7.7,0,0,1-.4.6l-2.2,1.1L36.6,34a.7.7,0,0,1-.7.6H29.5a.6.6,0,0,1-.6-.6l-.3-4.1A2.2,2.2,0,0,0,29.5,28.2Z" style="fill: #fff"/>
        <path d="M22.4,14.1H17.3a5.8,5.8,0,0,0-5.8,5.8v8.3a.6.6,0,0,0,.6.6l2.7.6.6,9.8a.6.6,0,0,0,.6.6h7.7a.7.7,0,0,0,.7-.6l.6-9.8,2.7-.6a.6.6,0,0,0,.5-.6V19.9A5.8,5.8,0,0,0,22.4,14.1Z" style="fill: #fff"/>
        <path d="M19.9,11.5a5.7,5.7,0,0,0,5.8-5.7,5.8,5.8,0,0,0-11.6,0A5.7,5.7,0,0,0,19.9,11.5Z" style="fill: #fff"/>
      </g>
    </g>
  </g>
</svg>
