<?xml version="1.0" encoding="utf-8"?>
<!-- Generator: Adobe Illustrator 22.0.1, SVG Export Plug-In . SVG Version: 6.00 Build 0)  -->
<svg version="1.1" id="Ebene_2" xmlns="http://www.w3.org/2000/svg" xmlns:xlink="http://www.w3.org/1999/xlink" x="0px" y="0px"
	 viewBox="0 0 194.2 56.7" style="enable-background:new 0 0 194.2 56.7;" xml:space="preserve">
<style type="text/css">
	.st0{fill:#FFFFFF;}
</style>
<g id="Layer_3">
	<g>
		<g>
			<path class="st0" d="M0,0v56.7h56.7V0H0z M50,50H6.7V6.7H50V50z"/>
			<polygon class="st0" points="39.7,22.3 48.1,13.9 42.8,8.6 34.3,17.1 39.7,17.1 			"/>
			<polygon class="st0" points="17.2,34.2 8.6,42.8 13.9,48.1 22.4,39.6 17.2,39.6 			"/>
			<polygon class="st0" points="48.2,42.8 39.7,34.3 39.7,39.6 34.4,39.6 42.9,48.1 			"/>
			<polygon class="st0" points="22.5,17.1 14,8.6 8.7,13.9 17.2,22.4 17.2,17.1 			"/>
		</g>
		<g>
			<path class="st0" d="M73.3,28V50h-6.7V28H73.3z"/>
			<path class="st0" d="M92.7,50c-3.3-4-7.8-9.3-9.9-12.9h-0.1V50h-5.2V28h4.8c3.2,3.9,7.9,9.6,9.5,12.6h0.1V28h5.2V50H92.7z"/>
			<path class="st0" d="M108,37.6h6.6v4.1H108v8.3h-6.7V28h13.4v4.1H108C108,32.1,108,37.6,108,37.6z"/>
			<path class="st0" d="M117.3,38.8c0-6.2,4.6-11.2,11-11.2c6.3,0,11,5,11,11.2c0,6.6-4.2,11.7-11,11.7S117.4,45.3,117.3,38.8z
				 M132.4,38.8c0-3.9-1.2-6.6-4-6.6s-4,2.7-4,6.6c0,4.2,1.1,7.1,4,7.1S132.4,42.9,132.4,38.8z"/>
			<path class="st0" d="M153.4,32.5c-0.9-0.5-2-0.8-3.3-0.8c-1.3,0-2,0.6-2,1.4c0,1.2,1.9,2.2,4,4.2c2.8,2.7,3.5,4.3,3.5,6.6
				c0,2-1.6,6.5-8.2,6.5c-2.6,0-5.2-0.6-6.9-2l2-3.7c0.9,0.7,2.2,1.5,3.8,1.5c1.3,0,2.8-0.7,2.8-2.3c0-1.8-2.1-3.1-3.9-4.6
				c-2.3-2-3.7-3.2-3.7-5.9c0-3.5,3.6-5.9,7.7-5.9c2.8,0,5,1,5.8,1.5L153.4,32.5L153.4,32.5z"/>
			<path class="st0" d="M165.6,36.5h6.6v4.1h-6.6v5.3h8.1V50H159V28h13.4v4.1h-6.8V36.5L165.6,36.5z"/>
			<path class="st0" d="M194.2,49.5c-1.2,0.5-3.3,1-5.3,1c-7.4,0-13.4-4.4-13.4-11.6c0-6.7,5.5-11.2,13-11.2c1.4,0,4.1,0.4,5.6,1.1
				l-1.6,3.9c-1.1-0.3-3-0.4-3.7-0.4c-3.2,0-6.4,2-6.4,6.8s3.3,6.8,6.7,6.8c1.4,0,2.8-0.3,3.8-0.5L194.2,49.5L194.2,49.5z"/>
		</g>
		<g>
			<path class="st0" d="M73.4,9.1c-0.6-0.4-1.4-0.8-2.2-0.8c-1.2,0-1.8,0.6-1.8,1.5c0,0.9,1,1.6,2.6,2.9c1.9,1.5,2.8,2.7,2.8,4.4
				s-1.7,3.8-4.8,3.8c-1.4,0-3.1-0.4-4.1-1.4l1-1.6c0.7,0.5,1.6,1.1,2.8,1.1c1.2,0,2.2-0.6,2.2-1.9c0-1.5-1.9-2.5-3-3.4
				c-1.3-1.1-2.5-1.9-2.5-3.8s1.9-3.4,4.4-3.4c1.6,0,2.8,0.6,3.5,1.2L73.4,9.1L73.4,9.1z"/>
			<path class="st0" d="M87,6.7c1.1,3.6,2.2,7.1,3.3,11.1h0c0.9-4.1,1.9-7.7,2.8-11.4l2.3,0.4l-3.9,13.7h-2.8
				c-1-3.3-2.1-6.6-3.1-10.4h0c-1,3.8-2,7.1-3,10.4h-2.9L75.9,6.8l2.8-0.4c0.9,3.6,1.8,7.3,2.8,11.4h0c1.1-4,2.2-7.6,3.3-11.1
				L87,6.7L87,6.7z"/>
			<path class="st0" d="M97.4,20.5V6.7h2.8v13.9L97.4,20.5L97.4,20.5z"/>
			<path class="st0" d="M110.2,9.1c-0.6-0.4-1.4-0.8-2.2-0.8c-1.2,0-1.8,0.6-1.8,1.5c0,0.9,1,1.6,2.6,2.9c1.9,1.5,2.8,2.7,2.8,4.4
				s-1.7,3.8-4.8,3.8c-1.4,0-3.1-0.4-4.1-1.4l1-1.6c0.7,0.5,1.6,1.1,2.8,1.1c1.2,0,2.2-0.6,2.2-1.9c0-1.5-1.9-2.5-3-3.4
				c-1.3-1.1-2.5-1.9-2.5-3.8s1.9-3.4,4.4-3.4c1.6,0,2.8,0.6,3.5,1.2L110.2,9.1L110.2,9.1z"/>
			<path class="st0" d="M121.2,9.1c-0.6-0.4-1.4-0.8-2.2-0.8c-1.2,0-1.8,0.6-1.8,1.5c0,0.9,1,1.6,2.6,2.9c1.9,1.5,2.8,2.7,2.8,4.4
				s-1.7,3.8-4.8,3.8c-1.4,0-3.1-0.4-4.1-1.4l1-1.6c0.7,0.5,1.6,1.1,2.8,1.1c1.2,0,2.2-0.6,2.2-1.9c0-1.5-1.9-2.5-3-3.4
				c-1.3-1.1-2.5-1.9-2.5-3.8s1.9-3.4,4.4-3.4c1.6,0,2.8,0.6,3.5,1.2L121.2,9.1L121.2,9.1z"/>
		</g>
	</g>
</g>
</svg>
