<?xml version="1.0" encoding="UTF-8"?> <svg xmlns="http://www.w3.org/2000/svg" id="Ebene_2" data-name="Ebene 2" viewBox="0 0 194.24 56.69"><defs><style> .cls-1 { fill: #c03; } </style></defs><g id="Layer_3" data-name="Layer 3"><g><g><path class="cls-1" d="M0,0V56.69H56.69V0H0ZM50.02,50.02H6.67V6.67H50.02V50.02Z"></path><polygon class="cls-1" points="39.69 22.31 48.1 13.9 42.79 8.6 34.3 17.09 39.69 17.09 39.69 22.31"></polygon><polygon class="cls-1" points="17.17 34.21 8.6 42.79 13.9 48.1 22.4 39.6 17.17 39.6 17.17 34.21"></polygon><polygon class="cls-1" points="48.18 42.79 39.69 34.3 39.69 39.6 34.38 39.6 42.87 48.1 48.18 42.79"></polygon><polygon class="cls-1" points="22.48 17.09 13.99 8.6 8.68 13.9 17.17 22.4 17.17 17.09 22.48 17.09"></polygon></g><g><path class="cls-1" d="M73.33,27.97v22.08h-6.66V27.97h6.66Z"></path><path class="cls-1" d="M92.72,50.05c-3.31-4.01-7.79-9.28-9.91-12.94h-.06v12.94h-5.24V27.97h4.83c3.19,3.91,7.95,9.65,9.53,12.65h.06v-12.65h5.24v22.08h-4.45Z"></path><path class="cls-1" d="M107.98,37.59h6.63v4.13h-6.63v8.33h-6.66V27.97h13.41v4.13h-6.75v5.49Z"></path><path class="cls-1" d="M117.35,38.76c0-6.18,4.64-11.17,10.98-11.17s10.98,4.98,10.98,11.17c0,6.59-4.2,11.67-10.98,11.67s-10.98-5.08-10.98-11.67Zm15.02,0c0-3.91-1.2-6.56-4.04-6.56s-4.04,2.65-4.04,6.56c0,4.16,1.07,7.07,4.04,7.07s4.04-2.9,4.04-7.07Z"></path><path class="cls-1" d="M153.43,32.54c-.88-.54-2.02-.82-3.25-.82-1.29,0-1.96,.63-1.96,1.36,0,1.23,1.86,2.24,4.01,4.23,2.84,2.65,3.53,4.32,3.53,6.62,0,1.96-1.61,6.5-8.23,6.5-2.59,0-5.17-.6-6.94-2.02l2.02-3.66c.95,.73,2.21,1.55,3.79,1.55,1.32,0,2.78-.66,2.78-2.3,0-1.77-2.15-3.06-3.88-4.57-2.3-2.02-3.66-3.19-3.66-5.9,0-3.53,3.57-5.93,7.73-5.93,2.81,0,5.02,1.01,5.77,1.48l-1.7,3.47Z"></path><path class="cls-1" d="M165.65,36.46h6.59v4.13h-6.59v5.33h8.11v4.13h-14.77V27.97h13.41v4.13h-6.75v4.35Z"></path><path class="cls-1" d="M194.24,49.45c-1.23,.47-3.31,.98-5.33,.98-7.35,0-13.38-4.42-13.38-11.64,0-6.69,5.49-11.2,13-11.2,1.45,0,4.07,.41,5.65,1.1l-1.64,3.91c-1.07-.32-3.03-.41-3.66-.41-3.19,0-6.4,2.05-6.4,6.85s3.25,6.78,6.72,6.78c1.42,0,2.75-.25,3.75-.5l1.29,4.13Z"></path></g><g><path class="cls-1" d="M73.37,9.07c-.61-.42-1.43-.79-2.24-.79-1.17,0-1.8,.65-1.8,1.47,0,.91,.97,1.6,2.6,2.89,1.86,1.49,2.85,2.65,2.85,4.36s-1.66,3.76-4.79,3.76c-1.45,0-3.05-.44-4.08-1.39l1.01-1.59c.73,.53,1.59,1.11,2.83,1.11,1.15,0,2.16-.61,2.16-1.92,0-1.53-1.86-2.54-2.97-3.41-1.35-1.09-2.48-1.94-2.48-3.78s1.88-3.37,4.4-3.37c1.59,0,2.85,.57,3.51,1.21l-.99,1.45Z"></path><path class="cls-1" d="M87,6.65c1.11,3.57,2.24,7.11,3.33,11.15h.04c.93-4.1,1.88-7.73,2.83-11.35l2.28,.4-3.9,13.67h-2.85c-1.03-3.29-2.06-6.6-3.07-10.36h-.04c-.99,3.76-1.98,7.07-2.99,10.36h-2.87l-3.86-13.67,2.75-.4c.93,3.63,1.84,7.25,2.75,11.35h.04c1.09-4.04,2.2-7.59,3.31-11.15h2.26Z"></path><path class="cls-1" d="M97.41,20.51V6.65h2.79v13.87h-2.79Z"></path><path class="cls-1" d="M110.18,9.07c-.61-.42-1.43-.79-2.24-.79-1.17,0-1.8,.65-1.8,1.47,0,.91,.97,1.6,2.6,2.89,1.86,1.49,2.85,2.65,2.85,4.36s-1.66,3.76-4.79,3.76c-1.45,0-3.05-.44-4.08-1.39l1.01-1.59c.73,.53,1.59,1.11,2.83,1.11,1.15,0,2.16-.61,2.16-1.92,0-1.53-1.86-2.54-2.97-3.41-1.35-1.09-2.48-1.94-2.48-3.78s1.88-3.37,4.4-3.37c1.58,0,2.85,.57,3.51,1.21l-.99,1.45Z"></path><path class="cls-1" d="M121.19,9.07c-.61-.42-1.43-.79-2.24-.79-1.17,0-1.8,.65-1.8,1.47,0,.91,.97,1.6,2.6,2.89,1.86,1.49,2.85,2.65,2.85,4.36s-1.66,3.76-4.79,3.76c-1.45,0-3.05-.44-4.08-1.39l1.01-1.59c.73,.53,1.59,1.11,2.83,1.11,1.15,0,2.16-.61,2.16-1.92,0-1.53-1.86-2.54-2.97-3.41-1.35-1.09-2.48-1.94-2.48-3.78s1.88-3.37,4.4-3.37c1.58,0,2.85,.57,3.51,1.21l-.99,1.45Z"></path></g></g></g></svg> 