<svg width="118" height="50" xmlns="http://www.w3.org/2000/svg"><g fill="#FFFFFE" fill-rule="evenodd"><path d="M.056 49.788h18.427v-6.734H.056zM100.276 49.788h14.147v-6.734h-14.147zM41.373 49.788h8.04v-6.734h-8.04zM85.845 49.788h12.07v-6.734h-12.07zM20.85 49.788h18.158v-6.734H20.85zM51.77 49.788H83.48v-6.734H51.771zM59.522 4.153h2.49v1.771h.037c.48-1.2 1.772-2.03 3.044-2.03.185 0 .406.037.573.092v2.436a4.803 4.803 0 0 0-.942-.092c-1.919 0-2.582 1.384-2.582 3.063v4.299h-2.62v-9.54M67.235 13.692h2.618v-9.54h-2.618v9.54zm0-11.016h2.618V.517h-2.618v2.16zM72.381 4.153h2.491V5.48h.056c.665-1.07 1.808-1.587 2.915-1.587 2.787 0 3.487 1.568 3.487 3.93v5.868h-2.62V8.304c0-1.568-.461-2.343-1.678-2.343-1.421 0-2.03.793-2.03 2.73v5h-2.62V4.154M90.463 8.803c0-1.55-.534-2.935-2.231-2.935-1.477 0-2.123 1.292-2.123 2.712 0 1.366.516 2.86 2.123 2.86 1.493 0 2.231-1.272 2.231-2.637m2.492 4.28c0 1.568-.555 4.225-4.945 4.225-1.882 0-4.079-.886-4.208-3.062h2.602c.24.977 1.033 1.31 1.956 1.31 1.458 0 2.103-.997 2.103-2.363V11.94h-.036c-.572.996-1.717 1.476-2.86 1.476-2.86 0-4.079-2.178-4.079-4.797 0-2.473 1.421-4.724 4.097-4.724 1.254 0 2.214.425 2.842 1.532h.036V4.153h2.492v8.93M95.593 13.692h2.62v-9.54h-2.62v9.54zm0-11.016h2.62V.517h-2.62v2.16zM107.162 7.898c-.24-1.328-.812-2.03-2.085-2.03-1.661 0-2.14 1.292-2.176 2.03h4.26zM102.9 9.56c.072 1.66.884 2.416 2.341 2.416 1.052 0 1.902-.645 2.068-1.235h2.305c-.737 2.25-2.305 3.21-4.465 3.21-3.008 0-4.871-2.067-4.871-5.018 0-2.86 1.975-5.038 4.871-5.038 3.248 0 4.816 2.732 4.632 5.665h-6.881zM111.793 4.153h2.49v1.771h.038c.479-1.2 1.77-2.03 3.044-2.03.184 0 .405.037.572.092v2.436a4.798 4.798 0 0 0-.941-.092c-1.918 0-2.582 1.384-2.582 3.063v4.299h-2.62v-9.54M6.402 28.07c-.443.387-1.366.405-2.178.554-.811.166-1.55.442-1.55 1.402 0 .978.757 1.218 1.606 1.218 2.048 0 2.122-1.624 2.122-2.196v-.978zM.35 26.134c.148-2.456 2.343-3.193 4.483-3.193 1.901 0 4.19.424 4.19 2.712v4.964c0 .867.09 1.734.331 2.12H6.697a3.862 3.862 0 0 1-.185-.92c-.83.865-2.048 1.18-3.21 1.18-1.808 0-3.247-.905-3.247-2.86 0-2.16 1.623-2.658 3.247-2.897 1.605-.221 3.1-.185 3.1-1.254 0-1.126-.775-1.293-1.698-1.293-.996 0-1.642.406-1.734 1.44H.35zM13.948 27.719l-3.137-4.52h2.99l1.68 2.49 1.658-2.49h2.899L16.9 27.664l3.524 5.074h-2.989l-1.993-3.007-1.993 3.007h-2.933l3.432-5.02M28.303 26.945c-.24-1.329-.812-2.03-2.086-2.03-1.66 0-2.14 1.293-2.177 2.03h4.263zm-4.263 1.66c.075 1.662.886 2.418 2.344 2.418 1.051 0 1.9-.645 2.066-1.237h2.307c-.738 2.25-2.307 3.21-4.465 3.21-3.008 0-4.872-2.066-4.872-5.019 0-2.859 1.975-5.036 4.872-5.036 3.247 0 4.816 2.731 4.63 5.664H24.04zM32.639 32.738h2.62V19.564h-2.62zM45.407 29.638c.018 1.145.977 1.606 2.01 1.606.758 0 1.717-.295 1.717-1.218 0-.794-1.089-1.07-2.97-1.477-1.513-.332-3.027-.867-3.027-2.545 0-2.436 2.104-3.063 4.152-3.063 2.085 0 4.004.7 4.207 3.045h-2.491c-.074-1.015-.849-1.293-1.79-1.293-.59 0-1.458.111-1.458.886 0 .941 1.476 1.07 2.97 1.42 1.532.351 3.027.905 3.027 2.676 0 2.509-2.177 3.321-4.355 3.321-2.214 0-4.373-.83-4.483-3.358h2.491M60.832 27.996c0-1.512-.61-3.08-2.288-3.08-1.716 0-2.27 1.531-2.27 3.08 0 1.55.591 3.027 2.288 3.027 1.716 0 2.27-1.477 2.27-3.027M53.746 23.2h2.492v1.217h.036c.627-1.014 1.66-1.475 2.841-1.475 2.99 0 4.337 2.417 4.337 5.129 0 2.547-1.402 4.926-4.188 4.926-1.144 0-2.233-.498-2.86-1.438h-.037v4.538h-2.62V23.199M65.112 23.2h2.49v1.77h.038c.48-1.2 1.771-2.029 3.044-2.029.184 0 .405.036.572.091v2.436a4.809 4.809 0 0 0-.942-.092c-1.918 0-2.58 1.384-2.58 3.063v4.299h-2.622v-9.539M72.826 32.738h2.619v-9.539h-2.62v9.539zm0-11.015h2.619v-2.159h-2.62v2.16zM77.972 23.2h2.492v1.328h.055c.664-1.07 1.808-1.587 2.914-1.587 2.787 0 3.488 1.567 3.488 3.93v5.867H84.3V27.35c0-1.567-.463-2.342-1.68-2.342-1.42 0-2.028.793-2.028 2.73v5h-2.621v-9.539M96.054 27.849c0-1.55-.536-2.934-2.232-2.934-1.476 0-2.123 1.293-2.123 2.712 0 1.365.517 2.86 2.123 2.86 1.495 0 2.232-1.273 2.232-2.638m2.491 4.28c0 1.568-.553 4.225-4.945 4.225-1.882 0-4.077-.886-4.206-3.062h2.6c.241.977 1.033 1.31 1.958 1.31 1.457 0 2.102-.996 2.102-2.362v-1.255h-.037c-.573.996-1.715 1.476-2.86 1.476-2.86 0-4.077-2.177-4.077-4.797 0-2.472 1.42-4.723 4.097-4.723 1.254 0 2.213.424 2.84 1.53h.037V23.2h2.491v8.93M107.162 26.945c-.24-1.329-.812-2.03-2.085-2.03-1.661 0-2.14 1.293-2.176 2.03h4.26zm-4.261 1.66c.072 1.662.884 2.418 2.341 2.418 1.052 0 1.902-.645 2.068-1.237h2.305c-.737 2.25-2.305 3.21-4.465 3.21-3.008 0-4.871-2.066-4.871-5.019 0-2.859 1.975-5.036 4.871-5.036 3.248 0 4.816 2.731 4.632 5.664h-6.881zM111.793 23.2h2.49v1.77h.036c.48-1.2 1.772-2.029 3.046-2.029.184 0 .405.036.572.091v2.436a4.798 4.798 0 0 0-.941-.092c-1.919 0-2.582 1.384-2.582 3.063v4.299h-2.62v-9.539"/></g></svg>